# xmcd
#
# Track frame offsets:
#	150
#	15095
#	30532
#	46475
#	63662
#	77870
#	94842
#	107820
#	121245
#	137155
#
# Disc length: 2051
#
# Revision: 3
# Processed by: cddbd v1.5.1PL0 Copyright (c) Steve Scherf et al.
# Submitted via: EasyCDDAExtractor 5.0.4.1
# Normalized: r2:DSETVAR1
#
DISCID=7d08010a
DTITLE=Various Artist - Country Hearts
DYEAR=1900
DGENRE=Country
TTITLE0=Alabama - Take A Little Trip
TTITLE1=Oak Ridge Boys - Lucky Moon
TTITLE2=Pam Tillis - One Of Those Things
TTITLE3=Earl Thomas Conley - Love Out Loud
TTITLE4=Shenandoah - Rock My Baby
TTITLE5=Restless Heart - When She Cries
TTITLE6=Don Williams - True Love
TTITLE7=Alan Jackson - Wanted
TTITLE8=Paul Overstreet - Ball and Chain
TTITLE9=Little Texas - You And Me Forever
EXTD=
EXTT0=
EXTT1=
EXTT2=
EXTT3=
EXTT4=
EXTT5=
EXTT6=
EXTT7=
EXTT8=
EXTT9=
PLAYORDER=
